<?xml version="1.0" standalone="no"?>
<!DOCTYPE svg PUBLIC "-//W3C//DTD SVG 20010904//EN"
 "http://www.w3.org/TR/2001/REC-SVG-20010904/DTD/svg10.dtd">
<svg version="1.0" xmlns="http://www.w3.org/2000/svg"
 width="640.000000pt" height="1280.000000pt" viewBox="0 0 640.000000 1280.000000"
 preserveAspectRatio="xMidYMid meet">
<metadata>
Created by potrace 1.15, written by Peter Selinger 2001-2017
</metadata>
<g transform="translate(0.000000,1280.000000) scale(0.100000,-0.100000)"
fill="#000000" stroke="none">
<path d="M1360 12785 c-17 -10 -56 -14 -119 -15 -51 0 -120 -7 -154 -16 -65
-17 -227 -91 -227 -105 0 -4 -6 -9 -13 -11 -24 -6 -152 -154 -176 -204 -14
-27 -32 -60 -42 -74 -10 -14 -27 -69 -39 -123 -16 -71 -27 -100 -41 -107 -18
-10 -19 -24 -19 -230 l0 -219 40 -32 c35 -28 40 -37 40 -73 -1 -42 -13 -63
-158 -282 -57 -85 -183 -328 -226 -434 -15 -36 -33 -77 -41 -91 -8 -14 -19
-43 -24 -65 -6 -21 -32 -100 -58 -174 -45 -129 -48 -140 -48 -242 0 -93 3
-109 20 -130 12 -13 27 -35 35 -51 33 -66 111 -142 230 -224 25 -17 59 -42 75
-57 167 -144 342 -254 690 -431 182 -93 366 -192 411 -221 44 -30 96 -60 116
-68 l35 -15 6 -148 c9 -243 54 -350 175 -418 30 -17 52 -23 72 -18 24 4 35 0
57 -24 42 -45 97 -143 117 -209 10 -33 30 -84 43 -115 24 -52 25 -66 27 -275
3 -205 4 -222 26 -263 25 -50 28 -106 7 -148 -34 -68 -50 -145 -44 -210 5 -46
2 -75 -8 -100 -17 -41 -19 -110 -5 -148 6 -15 13 -150 16 -300 l6 -274 -26
-57 -26 -57 24 -42 c14 -23 32 -48 41 -55 24 -20 48 -72 85 -185 38 -115 65
-172 127 -269 62 -97 222 -275 253 -282 14 -4 66 -19 116 -35 68 -22 98 -38
124 -64 19 -19 42 -35 51 -35 23 0 29 -10 36 -68 4 -37 1 -52 -11 -64 -23 -24
-20 -70 10 -145 l27 -66 -18 -73 c-18 -70 -18 -75 1 -171 15 -78 18 -133 16
-268 -3 -198 9 -283 61 -430 19 -55 38 -129 42 -165 19 -184 62 -299 139 -374
60 -58 68 -76 50 -112 -23 -44 -71 -90 -144 -136 -36 -23 -105 -72 -155 -108
-49 -37 -121 -89 -160 -115 -81 -57 -262 -230 -342 -327 -59 -72 -163 -251
-163 -281 0 -9 -9 -25 -20 -34 -11 -10 -20 -23 -20 -29 0 -28 -116 -189 -250
-347 l-65 -76 -55 -1 c-54 0 -58 -2 -103 -50 -75 -80 -133 -84 -341 -24 -32 9
-98 14 -184 14 -166 0 -185 -9 -232 -104 -41 -83 -50 -188 -48 -527 2 -239 1
-259 -21 -334 -37 -127 -50 -220 -50 -366 -1 -246 57 -448 153 -537 44 -40 48
-42 109 -42 54 0 70 4 101 28 100 73 104 79 135 202 40 157 63 215 116 285 25
33 48 75 51 95 4 19 10 37 13 40 4 3 28 39 53 80 26 41 77 113 114 159 l66 84
67 -6 66 -5 -43 18 c-48 22 -52 37 -19 69 27 24 81 35 247 50 186 17 224 44
161 116 -16 19 -33 52 -37 72 -10 56 -22 73 -60 89 -39 16 -64 60 -56 99 3 16
44 57 119 117 151 122 301 228 322 228 5 0 11 4 13 9 4 10 79 58 140 88 25 13
63 40 85 60 32 31 93 75 162 118 94 59 339 283 440 401 33 40 131 137 218 217
410 375 453 433 456 615 l1 77 49 54 c27 30 55 65 63 77 45 68 133 545 159
857 4 49 12 83 22 93 13 13 17 66 24 312 5 206 13 317 23 362 9 36 16 80 16
98 0 31 2 32 40 32 22 0 48 -4 58 -9 21 -11 151 -41 174 -41 10 0 48 -12 84
-27 l67 -26 -7 -60 c-3 -33 -10 -65 -14 -71 -5 -6 -17 -38 -26 -71 -10 -33
-21 -69 -26 -80 -24 -61 -68 -214 -95 -330 -9 -38 -21 -86 -26 -105 -19 -71
-29 -173 -39 -376 -11 -240 -24 -394 -45 -544 -8 -58 -19 -161 -24 -230 -8
-105 -34 -284 -70 -488 -9 -47 -25 -69 -56 -74 -14 -2 -24 8 -40 41 -26 53
-49 71 -90 71 -36 0 -65 -26 -65 -56 0 -11 16 -39 35 -62 41 -48 61 -126 47
-188 -5 -22 -34 -102 -64 -179 -80 -204 -100 -265 -122 -370 -7 -33 -18 -77
-25 -97 -9 -26 -9 -43 -2 -56 20 -38 186 -102 316 -122 39 -6 84 -15 100 -20
32 -10 327 -62 490 -86 55 -9 156 -25 225 -36 178 -30 626 -38 788 -14 138 20
235 50 263 79 30 31 21 93 -27 192 -47 97 -58 103 -208 121 -213 26 -220 29
-370 179 -39 39 -110 96 -158 128 -79 52 -138 113 -138 143 0 6 9 19 20 29 24
22 26 64 4 122 -18 47 -81 93 -128 93 -35 0 -34 24 5 170 17 63 35 130 39 149
5 18 18 60 30 92 26 70 22 89 -20 89 -39 0 -82 -22 -141 -72 -43 -36 -79 -49
-79 -29 0 50 36 266 50 301 10 25 21 63 25 85 10 64 84 285 115 345 19 38 31
82 39 140 6 51 26 131 51 200 22 63 49 147 60 185 10 39 26 95 35 125 8 30 27
127 41 215 13 88 38 198 53 245 57 167 65 207 137 653 20 126 15 223 -15 270
-28 45 -96 107 -164 152 -32 21 -75 57 -95 81 -20 24 -41 44 -48 44 -6 0 -17
6 -23 14 -7 8 -54 35 -106 61 -51 25 -100 56 -108 69 -22 33 -77 56 -136 56
-37 0 -62 7 -89 24 -20 12 -48 26 -62 31 -26 7 -108 44 -218 96 -36 17 -62 35
-60 42 3 6 28 24 57 38 67 33 77 49 62 101 -7 21 -9 48 -6 58 4 11 2 35 -4 52
-35 117 -36 118 -17 150 13 22 15 33 7 41 -6 6 -11 28 -11 48 0 21 -11 84 -24
141 -13 56 -27 132 -31 168 -4 36 -14 73 -22 82 -8 9 -19 31 -23 50 -5 18 -25
80 -44 138 -54 164 -117 403 -126 477 -11 97 -38 193 -64 228 -13 17 -29 48
-36 69 -11 35 -36 90 -129 288 -20 44 -31 83 -31 112 0 24 -9 72 -19 106 -15
49 -18 81 -14 158 4 87 8 105 40 167 51 100 51 101 -115 251 -65 59 -71 103
-29 236 43 140 44 257 3 488 -27 157 -54 243 -116 375 -11 23 -26 93 -34 165
-9 69 -20 149 -26 178 -19 104 -74 259 -131 372 -61 123 -101 212 -143 325
-15 39 -39 91 -54 117 -146 251 -184 289 -442 451 -90 57 -217 121 -280 142
-30 10 -82 28 -115 40 -33 13 -96 35 -140 50 -44 15 -137 54 -206 86 -69 33
-134 59 -145 59 -55 2 -172 53 -536 236 -95 48 -284 70 -338 39z m923 -641
c76 -31 208 -99 251 -128 49 -33 110 -80 121 -92 44 -50 262 -225 297 -237 39
-14 141 -105 175 -156 39 -58 42 -72 63 -266 5 -49 14 -106 20 -125 6 -19 22
-78 35 -130 26 -104 86 -282 116 -344 10 -22 19 -46 19 -53 0 -11 11 -39 53
-131 9 -18 6 -38 -13 -93 -24 -69 -48 -101 -92 -123 -12 -6 -28 -21 -34 -34
-16 -33 -44 -60 -77 -77 -65 -32 -77 -12 -77 127 l1 103 31 20 c18 11 45 38
60 60 23 34 27 50 28 112 l0 71 -44 39 c-43 38 -45 42 -57 124 -6 46 -25 120
-41 164 -16 44 -32 94 -34 110 -3 17 -18 57 -34 90 -16 33 -33 71 -39 85 -6
14 -24 43 -40 64 -24 34 -38 42 -97 58 -38 11 -72 24 -75 30 -5 7 -14 6 -29
-5 -18 -12 -28 -13 -43 -5 -11 5 -48 8 -82 6 -74 -5 -193 -59 -242 -110 -36
-38 -77 -109 -87 -152 -4 -17 -17 -43 -28 -59 -12 -16 -36 -64 -54 -106 -30
-68 -34 -86 -34 -170 0 -52 5 -145 11 -207 11 -109 10 -113 -11 -142 -19 -25
-22 -38 -16 -73 4 -24 11 -48 15 -54 5 -5 15 -31 24 -57 9 -26 27 -63 41 -81
14 -19 26 -37 26 -41 0 -5 14 -28 30 -53 17 -25 30 -51 28 -58 -4 -16 -106
-105 -121 -105 -7 0 -41 -14 -77 -31 -84 -40 -233 -62 -303 -44 -22 6 -36 2
-59 -15 -29 -22 -37 -22 -137 -16 -141 8 -170 18 -243 79 -193 163 -347 247
-623 338 -66 22 -126 46 -134 54 -18 18 -5 135 49 441 45 254 58 297 134 459
45 94 59 116 87 130 19 10 46 29 62 43 l27 26 73 -19 c109 -29 280 -28 372 4
164 55 278 141 394 296 39 52 87 107 107 122 20 15 45 35 55 43 11 8 30 44 43
80 93 255 104 266 229 214z"/>
</g>
</svg>
