<?xml version="1.0" standalone="no"?>
<!DOCTYPE svg PUBLIC "-//W3C//DTD SVG 20010904//EN"
 "http://www.w3.org/TR/2001/REC-SVG-20010904/DTD/svg10.dtd">
<svg version="1.0" xmlns="http://www.w3.org/2000/svg"
 width="773.000000pt" height="1280.000000pt" viewBox="0 0 773.000000 1280.000000"
 preserveAspectRatio="xMidYMid meet">
<metadata>
Created by potrace 1.15, written by Peter Selinger 2001-2017
</metadata>
<g transform="translate(0.000000,1280.000000) scale(0.100000,-0.100000)"
fill="#000000" stroke="none">
<path d="M2733 12774 c-24 -24 -25 -31 -20 -88 3 -34 20 -121 37 -194 18 -73
30 -136 28 -142 -2 -5 -39 17 -82 50 -69 52 -86 60 -123 60 l-43 0 0 -43 c0
-59 64 -151 199 -287 75 -76 135 -150 208 -256 130 -190 179 -244 373 -409
165 -140 325 -303 387 -393 l36 -52 -21 -23 c-12 -13 -22 -26 -22 -29 0 -3 29
-8 65 -12 87 -9 121 -27 173 -91 24 -30 102 -109 173 -177 72 -68 188 -177
257 -243 70 -67 150 -137 177 -157 28 -19 178 -111 335 -203 310 -183 384
-230 446 -284 23 -20 64 -55 93 -79 28 -24 58 -57 67 -74 15 -28 37 -195 36
-260 -1 -38 -54 -150 -106 -222 -53 -74 -67 -87 -106 -95 -29 -6 -35 -16 -114
-206 -95 -230 -107 -255 -116 -255 -3 0 -26 41 -50 92 -35 71 -61 109 -115
164 -69 70 -154 124 -196 124 -32 0 -205 -97 -229 -128 -56 -73 -87 -133 -92
-176 -3 -26 -8 -49 -11 -53 -3 -3 -85 0 -183 7 -179 12 -259 8 -304 -15 -29
-15 -125 0 -154 24 -38 32 -55 95 -91 351 -28 191 -52 297 -87 372 -30 66 -38
75 -107 120 -132 86 -254 106 -456 73 -192 -31 -254 -65 -400 -221 l-109 -116
-4 -269 -5 -269 30 -27 c23 -22 41 -61 77 -170 52 -156 99 -260 169 -373 26
-41 47 -82 47 -91 0 -9 9 -28 20 -41 11 -14 24 -37 29 -51 13 -33 -3 -46 -130
-107 -52 -25 -97 -49 -101 -55 -12 -17 -76 -292 -97 -416 -21 -120 -41 -352
-41 -472 l0 -68 -131 -223 c-135 -228 -228 -367 -339 -503 -102 -124 -304
-345 -469 -511 -83 -85 -164 -173 -181 -197 -43 -62 -170 -176 -280 -251 -116
-79 -319 -252 -456 -388 -245 -244 -287 -279 -501 -425 -50 -34 -99 -73 -107
-86 -15 -22 -23 -105 -11 -105 15 0 180 89 243 132 65 44 130 78 147 78 4 0
-13 -24 -38 -52 -24 -29 -79 -97 -121 -151 -64 -83 -76 -104 -76 -137 0 -46
19 -56 63 -34 17 9 103 89 190 178 l159 161 -7 -50 c-6 -43 -14 -58 -64 -110
-32 -33 -83 -94 -114 -136 -30 -42 -84 -109 -118 -149 l-63 -73 0 -291 -1
-291 28 -60 c40 -85 96 -155 169 -210 135 -102 278 -138 553 -139 175 -1 182
0 237 26 138 64 279 188 336 295 60 114 99 347 82 503 -10 96 -26 153 -76 257
-31 65 -42 77 -117 132 -131 94 -242 144 -382 171 -75 15 -125 35 -125 51 0 6
58 91 129 188 70 97 144 201 163 231 44 69 158 178 263 251 44 31 161 105 260
164 302 179 390 244 631 465 252 230 392 407 504 635 83 171 131 290 165 415
15 52 28 101 31 108 3 9 12 7 33 -9 22 -16 39 -20 63 -17 31 5 36 2 86 -67 29
-40 102 -125 162 -188 130 -139 146 -161 180 -244 25 -64 27 -65 90 -92 36
-15 65 -32 65 -37 -1 -5 -23 -52 -49 -105 -33 -67 -53 -124 -64 -184 l-16 -86
-141 -124 c-77 -68 -168 -152 -201 -187 -82 -83 -350 -420 -426 -532 -72 -108
-152 -270 -173 -351 -15 -58 -15 -61 7 -89 15 -21 18 -31 9 -34 -6 -2 -38 -43
-71 -92 -60 -89 -121 -150 -176 -177 -31 -15 -32 -16 -32 -92 0 -74 -2 -80
-64 -201 -36 -69 -96 -198 -134 -288 -56 -131 -73 -164 -92 -169 -57 -14 -157
-166 -250 -381 -26 -59 -61 -132 -78 -162 -18 -30 -48 -107 -68 -170 -44 -136
-60 -163 -134 -232 -32 -29 -78 -78 -102 -110 -35 -43 -55 -59 -88 -68 -29 -9
-53 -26 -75 -52 -31 -37 -37 -40 -98 -44 -95 -8 -109 -12 -109 -34 0 -13 -7
-20 -19 -20 -11 0 -31 -15 -46 -32 -14 -18 -38 -46 -53 -62 -38 -40 -289 -161
-401 -192 -119 -34 -257 -93 -316 -135 -25 -18 -59 -54 -76 -80 -19 -30 -35
-46 -44 -43 -11 5 -12 0 -5 -23 30 -101 50 -131 105 -161 27 -15 76 -17 450
-16 231 1 617 9 859 18 241 9 446 16 456 16 11 0 27 21 46 63 26 56 29 72 28
162 -1 109 -26 226 -70 326 l-25 56 21 59 c12 32 25 77 29 99 10 59 18 68 55
61 l31 -6 43 124 c51 145 75 182 142 216 27 14 103 78 173 145 108 104 129
130 159 195 29 60 125 339 188 541 8 29 56 79 208 221 247 231 277 258 291
258 6 0 45 -44 88 -98 42 -53 98 -122 123 -152 43 -50 48 -62 59 -133 14 -101
13 -183 -3 -230 -13 -36 -13 -38 14 -57 28 -20 34 -36 110 -287 28 -94 36
-108 95 -175 145 -165 347 -427 385 -500 22 -42 49 -79 59 -83 21 -6 50 -68
110 -232 49 -136 51 -151 14 -155 -27 -3 -28 -5 -50 -128 -12 -69 -24 -139
-28 -155 -5 -29 -10 -32 -101 -60 -53 -16 -112 -29 -130 -29 -19 -1 -34 -6
-34 -13 0 -23 52 -178 76 -224 33 -67 106 -127 228 -189 l107 -55 -6 -45 c-19
-141 -18 -205 4 -254 11 -27 21 -68 21 -91 0 -52 29 -98 88 -139 55 -39 125
-44 303 -21 200 25 268 41 317 75 23 17 46 30 51 30 4 0 17 10 29 23 30 32 43
144 18 162 -15 12 -14 22 14 136 17 68 31 143 32 166 l1 42 96 21 c167 38 244
60 298 86 44 21 54 31 63 62 14 51 13 68 -6 86 -13 14 -14 22 -4 49 7 17 14
104 17 192 l5 160 -45 115 c-25 63 -72 193 -104 287 -32 95 -62 173 -68 173
-6 0 -10 78 -11 213 -1 257 -13 334 -88 560 -58 173 -81 257 -89 323 -7 62 1
68 59 46 27 -11 78 -28 112 -37 75 -21 78 -19 88 65 8 68 18 82 53 74 57 -14
76 -49 302 -547 123 -269 231 -497 240 -506 10 -9 26 -50 37 -93 14 -57 28
-84 52 -110 39 -39 164 -247 221 -367 56 -117 77 -173 100 -271 14 -59 32
-104 59 -145 67 -103 90 -179 101 -339 5 -77 14 -173 19 -212 12 -92 -9 -172
-91 -344 -47 -98 -63 -143 -74 -215 -24 -143 -21 -168 21 -215 27 -29 35 -46
32 -64 -4 -22 -1 -25 34 -31 46 -8 200 0 408 21 172 18 208 26 320 72 47 19
95 38 106 42 12 5 33 24 47 42 22 29 31 63 58 228 34 213 34 240 -6 360 -82
251 -122 337 -151 326 -10 -4 -18 4 -25 22 -20 55 -33 72 -70 89 -36 16 -39
20 -97 182 -68 188 -145 439 -161 521 -5 30 -13 90 -16 133 -6 72 -8 77 -29
77 -21 0 -24 6 -30 58 -4 31 -20 111 -36 177 -51 209 -98 524 -87 590 5 29 2
34 -18 39 -18 5 -31 24 -55 83 -19 48 -44 90 -64 108 -18 17 -59 72 -91 124
-59 94 -139 197 -274 352 l-73 84 -4 132 c-4 125 -3 133 19 160 13 15 49 74
80 130 32 56 73 120 93 144 19 23 58 81 85 127 l51 86 -26 91 c-14 50 -26 101
-26 114 0 12 40 102 89 199 59 118 94 202 106 252 10 41 28 98 40 126 15 34
25 82 30 147 l7 96 52 11 c68 14 152 74 160 114 10 46 7 78 -13 134 -17 50
-17 63 -5 185 15 147 17 355 5 462 -5 44 -4 72 2 77 22 14 -13 212 -74 413
-45 150 -120 378 -130 397 -6 11 -5 28 3 48 l13 31 38 -31 c40 -34 41 -34 27
25 -32 132 -29 305 7 332 15 11 14 27 -1 190 -9 98 -26 232 -38 298 -21 116
-25 234 -9 245 5 3 16 19 24 37 15 29 15 41 2 140 -22 162 -24 173 -38 167 -9
-3 -11 16 -7 80 3 46 8 87 12 91 3 4 -2 27 -12 51 -27 62 -81 287 -79 326 2
26 -11 52 -60 123 -133 190 -266 329 -459 480 -2 1 29 63 67 136 127 243 163
397 165 696 l1 182 -35 36 c-66 68 -158 110 -325 145 -131 28 -375 53 -475 48
-83 -4 -90 -6 -160 -51 -67 -43 -77 -54 -107 -115 -18 -37 -50 -88 -70 -114
-82 -101 -106 -153 -113 -241 -4 -45 -13 -99 -21 -120 -12 -34 -16 -37 -39
-32 -43 11 -131 71 -235 161 -278 240 -515 408 -903 644 -342 207 -440 276
-548 384 -118 119 -214 240 -320 409 -43 67 -107 162 -142 212 -92 127 -168
247 -220 345 -57 109 -57 110 -104 110 -29 0 -46 -7 -65 -26z m-1963 -8513
c13 -24 13 -58 1 -66 -13 -7 -91 6 -91 16 0 14 52 69 66 69 7 0 18 -9 24 -19z
m3646 -138 c-3 -16 -8 -103 -12 -195 -6 -145 -5 -168 8 -168 8 0 23 -18 33
-40 24 -53 43 -69 112 -89 l58 -17 2 -80 c9 -294 36 -493 103 -738 54 -198
118 -345 209 -481 76 -113 125 -216 116 -245 -4 -14 32 -198 51 -263 5 -15 1
-17 -38 -11 -24 4 -45 11 -47 16 -2 5 -25 42 -51 81 -36 55 -60 109 -98 227
-94 289 -180 594 -227 810 -141 646 -203 802 -401 1009 -67 71 -71 78 -58 96
12 16 208 110 237 114 5 1 6 -11 3 -26z"/>
</g>
</svg>
